<svg version="1.1" viewBox="0.0 0.0 371.8530183727034 350.37007874015745" fill="none" stroke="none" stroke-linecap="square" stroke-miterlimit="10" xmlns:xlink="http://www.w3.org/1999/xlink" xmlns="http://www.w3.org/2000/svg"><clipPath id="p.0"><path d="m0 0l371.85303 0l0 350.3701l-371.85303 0l0 -350.3701z" clip-rule="nonzero"/></clipPath><g clip-path="url(#p.0)"><path fill="#000000" fill-opacity="0.0" d="m0 0l371.85303 0l0 350.3701l-371.85303 0z" fill-rule="evenodd"/><path fill="#000000" fill-opacity="0.0" d="m12.265459 136.87349l118.035904 -19.80635l55.648773 -104.16688l55.648773 104.16688l118.03589 19.80635l-83.64307 84.18501l17.301422 116.40787l-107.34302 -52.137665l-107.34303 52.137665l17.301422 -116.40787z" fill-rule="evenodd"/><path stroke="#78d5d7" stroke-width="24.0" stroke-linejoin="round" stroke-linecap="butt" d="m12.265459 136.87349l118.035904 -19.80635l55.648773 -104.16688l55.648773 104.16688l118.03589 19.80635l-83.64307 84.18501l17.301422 116.40787l-107.34302 -52.137665l-107.34303 52.137665l17.301422 -116.40787z" fill-rule="evenodd"/><path fill="#78d5d7" d="m186.8924 288.3491l-0.4855652 -257.28085l-59.223106 89.320206l-106.79527 16.503944l73.7874 82.03937l-12.136482 109.22308z" fill-rule="evenodd"/></g></svg>