<svg xmlns="http://www.w3.org/2000/svg" xmlns:xlink="http://www.w3.org/1999/xlink" fill="none" stroke="none" stroke-linecap="square" stroke-miterlimit="10" version="1.1" viewBox="0 0 481.034 477.932"><clipPath id="p.0"><path d="m0 0l481.03412 0l0 477.93176l-481.03412 0l0 -477.93176z" clip-rule="nonzero"/></clipPath><g clip-path="url(#p.0)"><path fill="#000" fill-opacity="0" fill-rule="evenodd" d="m0 0l481.03412 0l0 477.93176l-481.03412 0z"/><path fill="#fff" fill-rule="evenodd" d="m87.82049 248.23358l0 0c0 -40.83429 33.596268 -73.93701 75.039375 -73.93701l0 0c19.901672 0 38.988235 7.7897644 53.060837 21.655655c14.072617 13.865875 21.97853 32.672043 21.97853 52.281357l0 0c0 40.83429 -33.596268 73.93701 -75.03937 73.93701l0 0c-41.443108 0 -75.039375 -33.102722 -75.039375 -73.93701z"/><path fill="#fff" fill-rule="evenodd" d="m257.2982 248.22835l0 0c0 -36.92914 30.987518 -66.866135 69.212585 -66.866135l0 0c18.356323 0 35.960815 7.0448 48.940704 19.58464c12.979889 12.539825 20.271912 29.5475 20.271912 47.281494l0 0c0 36.929153 -30.987549 66.866135 -69.212616 66.866135l0 0c-38.225067 0 -69.212585 -29.936981 -69.212585 -66.866135z"/><path fill="#fff" fill-rule="evenodd" d="m214.92381 444.9402l0 0c-0.4724121 -38.965393 20.525208 -75.19287 55.028763 -94.941895c34.50357 -19.749023 77.22806 -19.994507 111.96863 -0.6434021c34.7406 19.351135 56.175934 55.33481 56.175934 94.30292l-111.590546 0z"/><path fill="#fff" fill-rule="evenodd" d="m41.91108 463.0558c-0.5125885 -42.196198 22.247879 -81.427704 59.64863 -102.81448c37.400757 -21.38678 83.71292 -21.652893 121.37085 -0.6974182c37.657913 20.955475 60.893326 59.9227 60.893326 102.12186l-120.96062 0z"/><path fill="#fff" fill-rule="evenodd" d="m176.12611 60.955864l43.408615 -7.259445l20.465271 -38.17936l20.465271 38.17936l43.4086 7.259445l-30.760376 30.855583l6.362732 42.66594l-39.476227 -19.109558l-39.476227 19.109558l6.362732 -42.66594z"/><path fill="#fff" fill-rule="evenodd" d="m28.558802 139.23969l34.189705 -27.720375l-1.0156136 -43.307495l36.628002 23.124786l41.347282 -15.088905l-11.552353 42.012283l26.569641 33.98204l-43.767754 2.8402252l-24.926346 36.090973l-15.497597 -40.256927z"/><path fill="#fff" fill-rule="evenodd" d="m340.49207 75.83578l41.219147 15.440727l36.825256 -22.811684l-1.3844299 43.297134l33.95395 28.010689l-42.074768 11.318375l-15.840576 40.123245l-24.619202 -36.301987l-43.743958 -3.2131805l26.859253 -33.754227z"/></g></svg>